<?xml version="1.0" encoding="UTF-8" standalone="no"?>
<!-- Created with Inkscape (http://www.inkscape.org/) -->

<svg
   width="4.2332153mm"
   height="4.2334261mm"
   viewBox="0 0 4.2332154 4.2334262"
   version="1.1"
   id="svg5"
   xml:space="preserve"
   inkscape:version="1.2.1 (9c6d41e410, 2022-07-14)"
   sodipodi:docname="dark-mode.svg"
   inkscape:export-filename="dark-mode.png"
   inkscape:export-xdpi="96"
   inkscape:export-ydpi="96"
   xmlns:inkscape="http://www.inkscape.org/namespaces/inkscape"
   xmlns:sodipodi="http://sodipodi.sourceforge.net/DTD/sodipodi-0.dtd"
   xmlns="http://www.w3.org/2000/svg"
   xmlns:svg="http://www.w3.org/2000/svg"><sodipodi:namedview
     id="namedview7"
     pagecolor="#ffffff"
     bordercolor="#999999"
     borderopacity="1"
     inkscape:showpageshadow="0"
     inkscape:pageopacity="0"
     inkscape:pagecheckerboard="0"
     inkscape:deskcolor="#d1d1d1"
     inkscape:document-units="px"
     showgrid="true"
     inkscape:zoom="1"
     inkscape:cx="650"
     inkscape:cy="206"
     inkscape:current-layer="layer1"><inkscape:grid
       type="xygrid"
       id="grid1254"
       dotted="true"
       empspacing="8"
       spacingx="0.26458334"
       spacingy="0.26458334" /></sodipodi:namedview><defs
     id="defs2" /><g
     inkscape:label="Layer 1"
     inkscape:groupmode="layer"
     id="layer1"
     transform="translate(-336.12851,-69.035909)"><path
       id="path6826"
       style="fill:#000000;stroke-width:0.264584"
       d="m 338.24227,69.036063 c -0.0672,0.001 -0.13232,0.0341 -0.17157,0.093 l -0.30127,0.57568 -0.66559,-0.35657 c -0.0274,-0.0102 -0.0565,-0.0149 -0.0858,-0.0129 -0.11578,0.006 -0.20392,0.10201 -0.19792,0.21446 l 0.10026,0.65112 -0.63666,0.12557 c -0.0285,0.007 -0.055,0.0209 -0.078,0.0393 -0.0428,0.0336 -0.07,0.0828 -0.076,0.13694 -0.006,0.0541 0.0102,0.10848 0.0449,0.15038 l 0.45217,0.49971 -0.45113,0.49971 c -0.0183,0.0226 -0.0318,0.0486 -0.0398,0.0765 -0.0302,0.10877 0.0368,0.2211 0.14883,0.2496 l 0.65577,0.10593 -0.11937,0.67025 c -0.002,0.0291 0.003,0.0583 0.0134,0.0853 0.0413,0.105 0.16237,0.15821 0.27027,0.11731 l 0.66508,-0.35657 0.30127,0.57568 c 0.0159,0.0244 0.0368,0.0445 0.0615,0.0599 0.0967,0.0615 0.22608,0.0344 0.28888,-0.0599 l 0.30127,-0.57568 0.66508,0.35657 c 0.0277,0.0102 0.0571,0.0149 0.0868,0.0129 0.11488,-0.006 0.20389,-0.10222 0.19689,-0.21549 l -0.11937,-0.67025 0.65577,-0.10593 c 0.0285,-0.007 0.055,-0.0204 0.078,-0.0388 0.0425,-0.034 0.0699,-0.0834 0.0749,-0.13746 0.005,-0.0541 -0.0116,-0.10826 -0.0465,-0.14986 l -0.45113,-0.49971 0.45113,-0.49971 c 0.0183,-0.0226 0.0318,-0.0486 0.0398,-0.0765 0.0302,-0.10876 -0.0366,-0.22123 -0.14779,-0.25063 l -0.63614,-0.12506 0.10026,-0.65112 c 0.002,-0.0291 -0.003,-0.0583 -0.0134,-0.0853 -0.0413,-0.10499 -0.16289,-0.15821 -0.27079,-0.11731 l -0.67386,0.35657 -0.29093,-0.57464 c -0.0159,-0.0244 -0.0368,-0.0451 -0.0615,-0.0605 -0.0364,-0.0231 -0.0775,-0.0334 -0.11782,-0.0326 z m 0.003,0.92604 c 0.65774,0 1.19062,0.5329 1.19062,1.19063 0,0.65774 -0.53288,1.19062 -1.19062,1.19062 -0.65773,0 -1.19063,-0.53288 -1.19063,-1.19062 0,-0.65773 0.5329,-1.19063 1.19063,-1.19063 z" /></g></svg>
