<?xml version="1.0" encoding="UTF-8" standalone="no"?>
<!-- Created with Inkscape (http://www.inkscape.org/) -->

<svg
   xmlns:dc="http://purl.org/dc/elements/1.1/"
   xmlns:cc="http://creativecommons.org/ns#"
   xmlns:rdf="http://www.w3.org/1999/02/22-rdf-syntax-ns#"
   xmlns:svg="http://www.w3.org/2000/svg"
   xmlns="http://www.w3.org/2000/svg"
   xmlns:sodipodi="http://sodipodi.sourceforge.net/DTD/sodipodi-0.dtd"
   xmlns:inkscape="http://www.inkscape.org/namespaces/inkscape"
   width="16px"
   height="16px"
   id="svg8208"
   version="1.1"
   inkscape:version="0.48.4 r9939"
   sodipodi:docname="journal.svg"
   inkscape:export-filename="/home/andreasn/SparkleShare/rhsc-design/graphics/journal.png"
   inkscape:export-xdpi="90"
   inkscape:export-ydpi="90">
  <defs
     id="defs8210" />
  <sodipodi:namedview
     id="base"
     pagecolor="#ffffff"
     bordercolor="#666666"
     borderopacity="1.0"
     inkscape:pageopacity="0.0"
     inkscape:pageshadow="2"
     inkscape:zoom="22.197802"
     inkscape:cx="7.9782487"
     inkscape:cy="7.9852012"
     inkscape:current-layer="layer1"
     showgrid="false"
     inkscape:grid-bbox="true"
     inkscape:document-units="px"
     inkscape:snap-nodes="false"
     inkscape:snap-bbox="true"
     inkscape:window-width="1600"
     inkscape:window-height="841"
     inkscape:window-x="0"
     inkscape:window-y="27"
     inkscape:window-maximized="1">
    <inkscape:grid
       type="xygrid"
       id="grid8227" />
  </sodipodi:namedview>
  <metadata
     id="metadata8213">
    <rdf:RDF>
      <cc:Work
         rdf:about="">
        <dc:format>image/svg+xml</dc:format>
        <dc:type
           rdf:resource="http://purl.org/dc/dcmitype/StillImage" />
        <dc:title></dc:title>
      </cc:Work>
    </rdf:RDF>
  </metadata>
  <g
     id="layer1"
     inkscape:label="Layer 1"
     inkscape:groupmode="layer">
    <g
       transform="translate(-163.0002,-255)"
       style="display:inline"
       inkscape:label="logviewer"
       id="g10347">
      <path
         style="fill:#bebebe;fill-opacity:1;stroke:none"
         d="m -58,58 0,16 0.96875,0 C -57.480523,73.474917 -57.42213,73.008159 -57,72.46875 l 2.544652,-2.520895 C -54.794854,69.362663 -55,68.690866 -55,67.96875 c 0,-2.21358 1.80078,-4.03125 4,-4.03125 2.19923,0 4,1.81767 4,4.03125 C -47,70.18233 -48.80077,72 -51,72 c -0.8092,0 -1.55582,-0.23556 -2.1875,-0.65625 L -55.96875,74 l 12,0 c -0.125962,-0.125962 -0.21875,-0.30779 -0.21875,-0.5 0,-0.38442 0.30308,-0.6875 0.6875,-0.6875 0.38442,0 0.71875,0.30308 0.71875,0.6875 0,0.19221 -0.09279,0.374038 -0.21875,0.5 l 1,0 0,-16 -1,0 c -0.125962,0.125962 -0.30779,0.21875 -0.5,0.21875 -0.19221,0 -0.342788,-0.09279 -0.46875,-0.21875 l -12.0625,0 c -0.12596,0.12595 -0.27654,0.21875 -0.46875,0.21875 -0.19221,0 -0.37404,-0.09279 -0.5,-0.21875 z m 1.5,0.8125 c 0.38442,0 0.6875,0.30308 0.6875,0.6875 0,0.38442 -0.30308,0.71875 -0.6875,0.71875 -0.38442,0 -0.71875,-0.33433 -0.71875,-0.71875 0,-0.38442 0.33433,-0.6875 0.71875,-0.6875 z m 13,0 c 0.38442,0 0.71875,0.30308 0.71875,0.6875 0,0.38442 -0.33433,0.71875 -0.71875,0.71875 -0.38442,0 -0.6875,-0.33433 -0.6875,-0.71875 0,-0.38442 0.30308,-0.6875 0.6875,-0.6875 z m -13,2 c 0.38442,0 0.6875,0.30308 0.6875,0.6875 0,0.38442 -0.30308,0.71875 -0.6875,0.71875 -0.38442,0 -0.71875,-0.33433 -0.71875,-0.71875 0,-0.38442 0.33433,-0.6875 0.71875,-0.6875 z m 13,0 c 0.38442,0 0.71875,0.30308 0.71875,0.6875 0,0.38442 -0.33433,0.71875 -0.71875,0.71875 -0.38442,0 -0.6875,-0.33433 -0.6875,-0.71875 0,-0.38442 0.30308,-0.6875 0.6875,-0.6875 z m -13,2 c 0.38442,0 0.6875,0.30308 0.6875,0.6875 0,0.38442 -0.30308,0.71875 -0.6875,0.71875 -0.38442,0 -0.71875,-0.33433 -0.71875,-0.71875 0,-0.38442 0.33433,-0.6875 0.71875,-0.6875 z m 13,0 c 0.38442,0 0.71875,0.30308 0.71875,0.6875 0,0.38442 -0.33433,0.71875 -0.71875,0.71875 -0.38442,0 -0.6875,-0.33433 -0.6875,-0.71875 0,-0.38442 0.30308,-0.6875 0.6875,-0.6875 z m -13,2 c 0.38442,0 0.6875,0.30308 0.6875,0.6875 0,0.38442 -0.30308,0.71875 -0.6875,0.71875 -0.38442,0 -0.71875,-0.33433 -0.71875,-0.71875 0,-0.38442 0.33433,-0.6875 0.71875,-0.6875 z m 13,0 c 0.38442,0 0.71875,0.30308 0.71875,0.6875 0,0.38442 -0.33433,0.71875 -0.71875,0.71875 -0.38442,0 -0.6875,-0.33433 -0.6875,-0.71875 0,-0.38442 0.30308,-0.6875 0.6875,-0.6875 z m -7.459794,1.203125 c -1.1122,0 -1.991044,0.896165 -1.991044,2.015625 0,1.11946 0.878844,2.015625 1.991044,2.015625 1.1122,0 1.991044,-0.896165 1.991044,-2.015625 0,-1.11946 -0.878844,-2.015625 -1.991044,-2.015625 z M -56.5,66.8125 c 0.38442,0 0.6875,0.30308 0.6875,0.6875 0,0.38442 -0.30308,0.71875 -0.6875,0.71875 -0.38442,0 -0.71875,-0.33433 -0.71875,-0.71875 0,-0.38442 0.33433,-0.6875 0.71875,-0.6875 z m 13,0 c 0.38442,0 0.71875,0.30308 0.71875,0.6875 0,0.38442 -0.33433,0.71875 -0.71875,0.71875 -0.38442,0 -0.6875,-0.33433 -0.6875,-0.71875 0,-0.38442 0.30308,-0.6875 0.6875,-0.6875 z m -13,2 c 0.38442,0 0.6875,0.30308 0.6875,0.6875 0,0.38442 -0.30308,0.71875 -0.6875,0.71875 -0.38442,0 -0.71875,-0.33433 -0.71875,-0.71875 0,-0.38442 0.33433,-0.6875 0.71875,-0.6875 z m 13,0 c 0.38442,0 0.71875,0.30308 0.71875,0.6875 0,0.38442 -0.33433,0.71875 -0.71875,0.71875 -0.38442,0 -0.6875,-0.33433 -0.6875,-0.71875 0,-0.38442 0.30308,-0.6875 0.6875,-0.6875 z m 0,2 c 0.38442,0 0.71875,0.30308 0.71875,0.6875 0,0.38442 -0.33433,0.71875 -0.71875,0.71875 -0.38442,0 -0.6875,-0.33433 -0.6875,-0.71875 0,-0.38442 0.30308,-0.6875 0.6875,-0.6875 z"
         transform="translate(221.0002,197)"
         id="path10349"
         inkscape:connector-curvature="0"
         sodipodi:nodetypes="cccccsssscccsssccccsccsccssssssssssssssssssssssssssssssssssssssssssssssssssssssssssssssssssssss" />
      <rect
         style="fill:none;stroke:none"
         id="rect10351"
         width="16"
         height="16"
         x="-78"
         y="38"
         transform="translate(241.0002,217)" />
    </g>
  </g>
</svg>
