<?xml version="1.0" encoding="UTF-8" standalone="no"?>
<!-- Created with Inkscape (http://www.inkscape.org/) -->

<svg
   xmlns:dc="http://purl.org/dc/elements/1.1/"
   xmlns:cc="http://creativecommons.org/ns#"
   xmlns:rdf="http://www.w3.org/1999/02/22-rdf-syntax-ns#"
   xmlns:svg="http://www.w3.org/2000/svg"
   xmlns="http://www.w3.org/2000/svg"
   xmlns:sodipodi="http://sodipodi.sourceforge.net/DTD/sodipodi-0.dtd"
   xmlns:inkscape="http://www.inkscape.org/namespaces/inkscape"
   width="32px"
   height="32px"
   id="svg7018"
   version="1.1"
   inkscape:version="0.48.5 r10040"
   sodipodi:docname="server-error.svg"
   inkscape:export-filename="/home/andreasn/SparkleShare/cockpit-design/graphics/server-error.png"
   inkscape:export-xdpi="90"
   inkscape:export-ydpi="90">
  <defs
     id="defs7020" />
  <sodipodi:namedview
     id="base"
     pagecolor="#ffffff"
     bordercolor="#666666"
     borderopacity="1.0"
     inkscape:pageopacity="0.0"
     inkscape:pageshadow="2"
     inkscape:zoom="15.836083"
     inkscape:cx="16.335721"
     inkscape:cy="15.6295"
     inkscape:current-layer="layer1"
     showgrid="false"
     inkscape:grid-bbox="true"
     inkscape:document-units="px"
     inkscape:window-width="1920"
     inkscape:window-height="1014"
     inkscape:window-x="0"
     inkscape:window-y="27"
     inkscape:window-maximized="1">
    <inkscape:grid
       type="xygrid"
       id="grid7026" />
  </sodipodi:namedview>
  <metadata
     id="metadata7023">
    <rdf:RDF>
      <cc:Work
         rdf:about="">
        <dc:format>image/svg+xml</dc:format>
        <dc:type
           rdf:resource="http://purl.org/dc/dcmitype/StillImage" />
        <dc:title></dc:title>
      </cc:Work>
    </rdf:RDF>
  </metadata>
  <g
     id="layer1"
     inkscape:label="Layer 1"
     inkscape:groupmode="layer">
    <path
       inkscape:connector-curvature="0"
       style="color:#bebebe;fill:#cc0000;fill-opacity:1;fill-rule:nonzero;stroke:none;stroke-width:1.78124988;marker:none;visibility:visible;display:inline;overflow:visible;enable-background:new"
       d="m 15.875,2.0000005 c -0.99109,-0.0537 -1.96573,0.557 -2.71875,1.84375 L 1.375,25.59375 c -1.00612,1.80786 0.0906,4.375 2.0625,4.375 l 24.8125,0 c 1.85151,0 3.6032,-2.15247 2.3125,-4.375 L 18.65625,3.9375005 c -0.75198,-1.21257 -1.79016,-1.88377 -2.78125,-1.9375 z M 16,9.000001 c 1.108,0 2,0.892 2,2 L 18,18 c 0,1.108 -0.892,2 -2,2 -1.108,0 -2,-0.892 -2,-2 l 0,-6.999999 c 0,-1.108 0.892,-2 2,-2 z M 14,22 l 4,0 0,4 -4,0 0,-4 z"
       id="path18112-5-0-5"
       inkscape:export-filename="/home/andreasn/SparkleShare/cockpit-design/navigation/navigation-horizontal-2.png"
       inkscape:export-xdpi="90"
       inkscape:export-ydpi="90" />
  </g>
</svg>
