<?xml version="1.0" encoding="UTF-8" standalone="no"?>
<!-- Created with Inkscape (http://www.inkscape.org/) -->

<svg
   xmlns:dc="http://purl.org/dc/elements/1.1/"
   xmlns:cc="http://creativecommons.org/ns#"
   xmlns:rdf="http://www.w3.org/1999/02/22-rdf-syntax-ns#"
   xmlns:svg="http://www.w3.org/2000/svg"
   xmlns="http://www.w3.org/2000/svg"
   xmlns:sodipodi="http://sodipodi.sourceforge.net/DTD/sodipodi-0.dtd"
   xmlns:inkscape="http://www.inkscape.org/namespaces/inkscape"
   width="16px"
   height="16px"
   id="svg6558"
   version="1.1"
   inkscape:version="0.48.4 r9939"
   sodipodi:docname="system.svg"
   inkscape:export-filename="/home/andreasn/SparkleShare/rhsc-design/graphics/category-system.png"
   inkscape:export-xdpi="90"
   inkscape:export-ydpi="90">
  <defs
     id="defs6560" />
  <sodipodi:namedview
     id="base"
     pagecolor="#ffffff"
     bordercolor="#666666"
     borderopacity="1.0"
     inkscape:pageopacity="0.0"
     inkscape:pageshadow="2"
     inkscape:zoom="22.197802"
     inkscape:cx="7.1440594"
     inkscape:cy="8"
     inkscape:current-layer="layer1"
     showgrid="false"
     inkscape:grid-bbox="true"
     inkscape:document-units="px"
     inkscape:snap-nodes="false"
     inkscape:snap-bbox="true"
     inkscape:window-width="1600"
     inkscape:window-height="841"
     inkscape:window-x="0"
     inkscape:window-y="27"
     inkscape:window-maximized="1">
    <inkscape:grid
       type="xygrid"
       id="grid8114" />
  </sodipodi:namedview>
  <metadata
     id="metadata6563">
    <rdf:RDF>
      <cc:Work
         rdf:about="">
        <dc:format>image/svg+xml</dc:format>
        <dc:type
           rdf:resource="http://purl.org/dc/dcmitype/StillImage" />
        <dc:title></dc:title>
      </cc:Work>
    </rdf:RDF>
  </metadata>
  <g
     id="layer1"
     inkscape:label="Layer 1"
     inkscape:groupmode="layer">
    <g
       style="display:inline"
       inkscape:label="computer"
       id="g11720-5-4"
       transform="translate(-48,-398)">
      <g
         id="g11722-3-9"
         inkscape:label="accessories-calculator">
        <rect
           y="398"
           x="48"
           height="16"
           width="16"
           id="rect11724-0-0"
           style="opacity:0.51464431;color:#bebebe;fill:none;stroke:none;stroke-width:3;marker:none;visibility:visible;display:inline;overflow:visible;enable-background:accumulate" />
      </g>
      <g
         id="g3600">
        <path
           id="rect11749-5-91"
           d="M 51.1875,398 C 49.985903,398 49,398.98758 49,400.1875 l 0,5.625 C 49,407.01242 49.985903,408 51.1875,408 l 9.625,0 C 62.014097,408 63,407.01242 63,405.8125 l 0,-5.625 C 63,398.98758 62.014097,398 60.8125,398 l -9.625,0 z m 0,2 9.625,0 C 60.936295,400 61,400.0566 61,400.1875 l 0,5.625 C 61,405.9434 60.936295,406 60.8125,406 l -9.625,0 C 51.063705,406 51,405.9434 51,405.8125 l 0,-5.625 C 51,400.0566 51.063705,400 51.1875,400 z"
           style="font-size:medium;font-style:normal;font-variant:normal;font-weight:normal;font-stretch:normal;text-indent:0;text-align:start;text-decoration:none;line-height:normal;letter-spacing:normal;word-spacing:normal;text-transform:none;direction:ltr;block-progression:tb;writing-mode:lr-tb;text-anchor:start;color:#bebebe;fill:#bebebe;fill-opacity:1;stroke:none;stroke-width:1.99999976;marker:none;visibility:visible;display:inline;overflow:visible;enable-background:accumulate;font-family:Andale Mono;-inkscape-font-specification:Andale Mono"
           inkscape:connector-curvature="0" />
        <path
           id="path11751-2-7"
           d="m 53.90625,409.03125 a 0.50219246,0.50219246 0 1 0 0.09375,1 l 4,0 a 0.50005,0.50005 0 1 0 0,-1 l -4,0 a 0.50005,0.50005 0 0 0 -0.09375,0 z"
           style="font-size:medium;font-style:normal;font-variant:normal;font-weight:normal;font-stretch:normal;text-indent:0;text-align:start;text-decoration:none;line-height:normal;letter-spacing:normal;word-spacing:normal;text-transform:none;direction:ltr;block-progression:tb;writing-mode:lr-tb;text-anchor:start;color:#bebebe;fill:#bebebe;fill-opacity:1;stroke:none;stroke-width:1;marker:none;visibility:visible;display:inline;overflow:visible;enable-background:accumulate;font-family:Andale Mono;-inkscape-font-specification:Andale Mono"
           inkscape:connector-curvature="0" />
        <path
           id="rect4340"
           d="m 50.90625,411 a 1.0001,1.0001 0 0 0 -0.625,0.28125 l -1,1 A 1.0001,1.0001 0 0 0 50,414 l 12,0 a 1.0001,1.0001 0 0 0 0.71875,-1.71875 l -1,-1 A 1.0001,1.0001 0 0 0 61,411 l -10,0 a 1.0001,1.0001 0 0 0 -0.09375,0 z"
           style="font-size:medium;font-style:normal;font-variant:normal;font-weight:normal;font-stretch:normal;text-indent:0;text-align:start;text-decoration:none;line-height:normal;letter-spacing:normal;word-spacing:normal;text-transform:none;direction:ltr;block-progression:tb;writing-mode:lr-tb;text-anchor:start;color:#bebebe;fill:#bebebe;fill-opacity:1;fill-rule:nonzero;stroke:none;stroke-width:2;marker:none;visibility:visible;display:inline;overflow:visible;enable-background:accumulate;font-family:Andale Mono;-inkscape-font-specification:Andale Mono"
           inkscape:connector-curvature="0" />
      </g>
    </g>
  </g>
</svg>
