<?xml version="1.0" encoding="UTF-8" standalone="no"?>
<!-- Created with Inkscape (http://www.inkscape.org/) -->

<svg
   xmlns:dc="http://purl.org/dc/elements/1.1/"
   xmlns:cc="http://creativecommons.org/ns#"
   xmlns:rdf="http://www.w3.org/1999/02/22-rdf-syntax-ns#"
   xmlns:svg="http://www.w3.org/2000/svg"
   xmlns="http://www.w3.org/2000/svg"
   xmlns:sodipodi="http://sodipodi.sourceforge.net/DTD/sodipodi-0.dtd"
   xmlns:inkscape="http://www.inkscape.org/namespaces/inkscape"
   width="16px"
   height="16px"
   id="svg7890"
   version="1.1"
   inkscape:version="0.48.4 r9939"
   sodipodi:docname="users.svg"
   inkscape:export-filename="/home/andreasn/SparkleShare/rhsc-design/graphics/users.png"
   inkscape:export-xdpi="90"
   inkscape:export-ydpi="90">
  <defs
     id="defs7892" />
  <sodipodi:namedview
     id="base"
     pagecolor="#ffffff"
     bordercolor="#666666"
     borderopacity="1.0"
     inkscape:pageopacity="0.0"
     inkscape:pageshadow="2"
     inkscape:zoom="22.197802"
     inkscape:cx="8"
     inkscape:cy="8"
     inkscape:current-layer="g21181"
     showgrid="false"
     inkscape:grid-bbox="true"
     inkscape:document-units="px"
     inkscape:snap-nodes="false"
     inkscape:snap-bbox="true"
     inkscape:window-width="1600"
     inkscape:window-height="841"
     inkscape:window-x="0"
     inkscape:window-y="27"
     inkscape:window-maximized="1">
    <inkscape:grid
       type="xygrid"
       id="grid7898" />
  </sodipodi:namedview>
  <metadata
     id="metadata7895">
    <rdf:RDF>
      <cc:Work
         rdf:about="">
        <dc:format>image/svg+xml</dc:format>
        <dc:type
           rdf:resource="http://purl.org/dc/dcmitype/StillImage" />
        <dc:title></dc:title>
      </cc:Work>
    </rdf:RDF>
  </metadata>
  <g
     id="layer1"
     inkscape:label="Layer 1"
     inkscape:groupmode="layer">
    <g
       transform="translate(-41.000198,-337)"
       inkscape:label="system-users"
       id="g21181"
       style="display:inline">
      <path
         transform="translate(-4,-2)"
         d="m 52,342.5 c 0,1.38071 -1.119288,2.5 -2.5,2.5 -1.380712,0 -2.5,-1.11929 -2.5,-2.5 0,-1.38071 1.119288,-2.5 2.5,-2.5 1.380712,0 2.5,1.11929 2.5,2.5 z"
         sodipodi:ry="2.5"
         sodipodi:rx="2.5"
         sodipodi:cy="342.5"
         sodipodi:cx="49.5"
         id="path21187"
         style="color:#bebebe;fill:#bebebe;fill-opacity:1;fill-rule:nonzero;stroke:none;stroke-width:2;marker:none;visibility:visible;display:inline;overflow:visible;enable-background:accumulate"
         sodipodi:type="arc" />
      <path
         style="color:#bebebe;fill:#bebebe;fill-opacity:1;fill-rule:nonzero;stroke:none;stroke-width:2;marker:none;visibility:visible;display:inline;overflow:visible;enable-background:accumulate"
         d="m 47,344 -3,0 0.0467,-0.68495 C 42.651548,343.36209 42,345.08549 42,346.5 l 0,1.5 6,0 0,-1 1,0 0,-0.5 c 0,-1.5 -0.593143,-3.13176 -1.985069,-3.15605 z"
         id="path21193"
         inkscape:connector-curvature="0"
         sodipodi:nodetypes="cccsccccccc" />
      <path
         sodipodi:type="arc"
         style="color:#bebebe;fill:#bebebe;fill-opacity:1;fill-rule:nonzero;stroke:none;stroke-width:2;marker:none;visibility:visible;display:inline;overflow:visible;enable-background:accumulate"
         id="path21200"
         sodipodi:cx="49.5"
         sodipodi:cy="342.5"
         sodipodi:rx="2.5"
         sodipodi:ry="2.5"
         d="m 52,342.5 c 0,1.38071 -1.119288,2.5 -2.5,2.5 -1.380712,0 -2.5,-1.11929 -2.5,-2.5 0,-1.38071 1.119288,-2.5 2.5,-2.5 1.380712,0 2.5,1.11929 2.5,2.5 z"
         transform="translate(3,2)" />
      <path
         sodipodi:nodetypes="cccsccscc"
         inkscape:connector-curvature="0"
         id="path21202"
         d="m 54,348 -3,0 0.0467,-0.68495 C 49.464261,347.3684 49,348.96049 49,350 l 0,2 7,0 0,-2 c 0,-1.04657 -0.217712,-2.62521 -1.985069,-2.65605 z"
         style="color:#bebebe;fill:#bebebe;fill-opacity:1;fill-rule:nonzero;stroke:none;stroke-width:2;marker:none;visibility:visible;display:inline;overflow:visible;enable-background:accumulate" />
    </g>
  </g>
</svg>
