<?xml version="1.0" encoding="UTF-8" standalone="no"?>
<!-- Created with Inkscape (http://www.inkscape.org/) -->

<svg
   xmlns:dc="http://purl.org/dc/elements/1.1/"
   xmlns:cc="http://creativecommons.org/ns#"
   xmlns:rdf="http://www.w3.org/1999/02/22-rdf-syntax-ns#"
   xmlns:svg="http://www.w3.org/2000/svg"
   xmlns="http://www.w3.org/2000/svg"
   xmlns:sodipodi="http://sodipodi.sourceforge.net/DTD/sodipodi-0.dtd"
   xmlns:inkscape="http://www.inkscape.org/namespaces/inkscape"
   width="744.09448819"
   height="1052.3622047"
   id="svg9060"
   version="1.1"
   inkscape:version="0.48.5 r10040"
   sodipodi:docname="New document 14">
  <defs
     id="defs9062" />
  <sodipodi:namedview
     id="base"
     pagecolor="#ffffff"
     bordercolor="#666666"
     borderopacity="1.0"
     inkscape:pageopacity="0.0"
     inkscape:pageshadow="2"
     inkscape:zoom="0.35"
     inkscape:cx="375"
     inkscape:cy="520"
     inkscape:document-units="px"
     inkscape:current-layer="layer1"
     showgrid="false"
     inkscape:window-width="501"
     inkscape:window-height="434"
     inkscape:window-x="238"
     inkscape:window-y="265"
     inkscape:window-maximized="0" />
  <metadata
     id="metadata9065">
    <rdf:RDF>
      <cc:Work
         rdf:about="">
        <dc:format>image/svg+xml</dc:format>
        <dc:type
           rdf:resource="http://purl.org/dc/dcmitype/StillImage" />
        <dc:title></dc:title>
      </cc:Work>
    </rdf:RDF>
  </metadata>
  <g
     inkscape:label="Layer 1"
     inkscape:groupmode="layer"
     id="layer1">
    <path
       inkscape:connector-curvature="0"
       id="path4327"
       d="m 375.01562,423.47156 c -60.14074,0 -108.90625,48.76551 -108.90625,108.90625 0,60.14074 48.76551,108.875 108.90625,108.875 60.14074,0 108.875,-48.73426 108.875,-108.875 0,-60.14074 -48.73426,-108.90625 -108.875,-108.90625 z m 0,32 c 42.46763,0 76.875,34.43862 76.875,76.90625 0,42.46763 -34.40737,76.875 -76.875,76.875 -42.46762,0 -76.90625,-34.40737 -76.90625,-76.875 0,-42.46763 34.43863,-76.90625 76.90625,-76.90625 z"
       style="color:#000000;fill:#cccccc;stroke:none;stroke-width:1;marker:none;visibility:visible;display:inline;overflow:visible;enable-background:accumulate" />
    <path
       inkscape:transform-center-y="-59.497266"
       inkscape:transform-center-x="-47.022205"
       inkscape:connector-curvature="0"
       id="path4329"
       d="M 482.96606,517.88932 C 474.9424,458.37327 420.2212,416.56293 360.66827,424.48918 c -0.14488,0.0193 -0.289,0.0379 -0.43367,0.0577 l 4.22183,31.72027 c 0.14355,-0.0199 0.28983,-0.0386 0.43367,-0.0577 42.03476,-5.59465 80.66436,23.90356 86.35569,65.9017 l 31.72027,-4.22184 z"
       style="color:#000000;fill:#000000;stroke:none;stroke-width:1;marker:none;visibility:visible;display:inline;overflow:visible;enable-background:accumulate" />
  </g>
</svg>
