<?xml version="1.0" encoding="UTF-8" standalone="no"?>
<!-- Created with Inkscape (http://www.inkscape.org/) -->

<svg
   width="479.65872"
   height="85.96357"
   id="svg2"
   version="1.1"
   inkscape:version="1.4.3 (0d15f75042, 2025-12-25)"
   sodipodi:docname="logo-light-adjusted-5-flat.svg"
   inkscape:export-filename="/home/andreasn/SparkleShare/cockpit-design/website/logo.png"
   inkscape:export-xdpi="90"
   inkscape:export-ydpi="90"
   xmlns:inkscape="http://www.inkscape.org/namespaces/inkscape"
   xmlns:sodipodi="http://sodipodi.sourceforge.net/DTD/sodipodi-0.dtd"
   xmlns="http://www.w3.org/2000/svg"
   xmlns:svg="http://www.w3.org/2000/svg"
   xmlns:rdf="http://www.w3.org/1999/02/22-rdf-syntax-ns#"
   xmlns:cc="http://creativecommons.org/ns#"
   xmlns:dc="http://purl.org/dc/elements/1.1/">
  <defs
     id="defs4" />
  <sodipodi:namedview
     id="base"
     pagecolor="#b1b1b1"
     bordercolor="#666666"
     borderopacity="1.0"
     inkscape:pageopacity="0.0"
     inkscape:pageshadow="2"
     inkscape:zoom="2"
     inkscape:cx="194.25"
     inkscape:cy="-42.25"
     inkscape:document-units="px"
     inkscape:current-layer="layer1"
     showgrid="false"
     inkscape:snap-nodes="false"
     inkscape:snap-bbox="true"
     inkscape:window-width="1920"
     inkscape:window-height="1014"
     inkscape:window-x="0"
     inkscape:window-y="27"
     inkscape:window-maximized="1"
     inkscape:snap-global="false"
     showborder="true"
     inkscape:showpageshadow="false"
     fit-margin-top="0"
     fit-margin-left="0"
     fit-margin-right="0"
     fit-margin-bottom="0"
     inkscape:pagecheckerboard="false"
     showguides="true"
     inkscape:guide-bbox="true"
     inkscape:deskcolor="#d1d1d1"
     inkscape:clip-to-page="false">
    <inkscape:grid
       type="xygrid"
       id="grid6061"
       empspacing="5"
       visible="true"
       enabled="true"
       snapvisiblegridlinesonly="true"
       originx="-25.695717"
       originy="-939.68149"
       spacingx="1"
       spacingy="1"
       units="px" />
  </sodipodi:namedview>
  <metadata
     id="metadata7">
    <rdf:RDF>
      <cc:Work
         rdf:about="">
        <dc:format>image/svg+xml</dc:format>
        <dc:type
           rdf:resource="http://purl.org/dc/dcmitype/StillImage" />
      </cc:Work>
    </rdf:RDF>
  </metadata>
  <g
     inkscape:label="Layer 1"
     inkscape:groupmode="layer"
     id="layer1"
     transform="translate(-25.695716,-26.717132)">
    <path
       style="font-size:74.3732px;line-height:1.25;font-family:'Red Hat Display';-inkscape-font-specification:'Red Hat Display, Normal';letter-spacing:7.99999px;word-spacing:0px;fill:#ffffff"
       d="m 168.24963,96.547666 c 7.88356,0 15.2465,-3.123674 20.45263,-8.552918 l -3.71866,-3.867406 c -3.94178,4.462392 -10.11476,7.139827 -16.58523,7.139827 -12.12283,0 -21.3451,-9.371023 -21.3451,-21.568228 0,-12.197205 9.1479,-21.568228 21.19636,-21.568228 6.39609,0 12.71782,2.677435 16.80834,7.288574 l 3.79303,-4.016153 c -5.05737,-5.429244 -12.49469,-8.552918 -20.60137,-8.552918 -15.17213,0 -26.99747,11.825339 -26.99747,26.848725 0,15.023386 11.82534,26.848725 26.99747,26.848725 z m 57.5487,0 c 14.94901,0 26.77435,-11.825339 26.77435,-26.848725 0,-15.023386 -11.82534,-26.848725 -26.77435,-26.848725 -15.02339,0 -26.84872,11.825339 -26.84872,26.848725 0,15.023386 11.82533,26.848725 26.84872,26.848725 z m 0,-5.280497 c -11.89971,0 -21.04761,-9.445396 -21.04761,-21.568228 0,-12.197205 9.1479,-21.568228 21.04761,-21.568228 11.82534,0 20.97324,9.371023 20.97324,21.568228 0,12.122832 -9.1479,21.568228 -20.97324,21.568228 z m 64.31665,5.280497 c 7.88356,0 15.24651,-3.123674 20.45263,-8.552918 l -3.71866,-3.867406 c -3.94177,4.462392 -10.11475,7.139827 -16.58522,7.139827 -12.12283,0 -21.34511,-9.371023 -21.34511,-21.568228 0,-12.197205 9.14791,-21.568228 21.19636,-21.568228 6.3961,0 12.71782,2.677435 16.80835,7.288574 l 3.79303,-4.016153 c -5.05738,-5.429244 -12.4947,-8.552918 -20.60138,-8.552918 -15.17213,0 -26.99747,11.825339 -26.99747,26.848725 0,15.023386 11.82534,26.848725 26.99747,26.848725 z m 38.1543,-0.818105 h 5.72673 V 70.740166 l 26.99748,24.989395 h 8.0323 l -28.8568,-26.551232 28.26182,-25.510008 h -7.5117 l -26.9231,24.691902 V 43.668321 h -5.72673 z m 54.8883,0 h 5.72674 V 73.789467 h 16.88272 c 10.11475,0 16.80834,-6.024229 16.80834,-15.097759 0,-9.073531 -6.61922,-15.023387 -16.80834,-15.023387 h -22.60946 z m 5.72674,-26.923098 V 48.800072 h 16.43648 c 7.06545,0 11.52784,3.793033 11.52784,9.966009 0,6.172975 -4.46239,10.040382 -11.52784,10.040382 z m 51.39265,26.923098 h 5.72673 v -52.06124 h -5.72673 z m 40.53429,0 H 486.538 V 48.800072 h 18.81642 v -5.131751 h -43.35958 v 5.131751 h 18.81642 z"
       id="text3194"
       aria-label="COCKPIT" />
    <g
       id="g20728"
       transform="matrix(0.84896859,0.84896859,-0.84896859,0.84896859,71.004522,-50.559844)"
       style="fill:#ffffff;stroke-width:0.8329">
      <path
         id="rect13090-4-6-0-6-3-1-9-1-7-4"
         style="font-variation-settings:normal;display:inline;vector-effect:none;fill:#ffffff;fill-opacity:1;stroke:none;stroke-width:1.13377;stroke-linecap:butt;stroke-linejoin:miter;stroke-miterlimit:4;stroke-dasharray:none;stroke-dashoffset:0;stroke-opacity:1;-inkscape-stroke:none;stop-color:#000000"
         d="m 69.134486,49.742466 c -1.889506,0.362751 -3.362615,3.960134 -3.349547,8.333983 v 20.732424 c -0.01361,4.36462 1.454188,7.954598 3.669841,7.959798 2.215653,0.0054 3.68495,-3.589107 3.672019,-7.959812 V 58.076435 c 0.01361,-4.375305 -1.459225,-7.97326 -3.349683,-8.333983 -0.0245,-0.0054 -0.214119,-0.03389 -0.321792,-0.03389 -0.107536,1.4e-5 -0.320838,0.03389 -0.320838,0.03389 z"
         sodipodi:nodetypes="ccccccczcc" />
      <path
         id="path13094-9-3-5-6-5-9-7-3-5-9"
         style="font-variation-settings:normal;vector-effect:none;fill:#ffffff;fill-opacity:1;stroke:none;stroke-width:1.13377;stroke-linecap:butt;stroke-linejoin:miter;stroke-miterlimit:4;stroke-dasharray:none;stroke-dashoffset:0;stroke-opacity:1;-inkscape-stroke:none;stop-color:#000000"
         d="m 69.456859,63.45343 -18.541016,9.21875 0.07227,4.410157 18.46875,-2.5 18.466797,2.5 0.07227,-4.410157 z"
         sodipodi:nodetypes="ccccccc" />
      <path
         id="path13100-6-3-1-2-5-0-8-9-0-0"
         style="font-variation-settings:normal;vector-effect:none;fill:#ffffff;fill-opacity:1;stroke:none;stroke-width:1.13377;stroke-linecap:butt;stroke-linejoin:miter;stroke-miterlimit:4;stroke-dasharray:none;stroke-dashoffset:0;stroke-opacity:1;-inkscape-stroke:none;stop-color:#000000"
         d="m 69.44514,79.660462 -8.716797,7.505859 v 0.04102 2.480468 l 6.720704,-1.039062 2.007812,-0.298828 2.007813,0.298828 6.720703,1.039062 v -2.480468 -0.04102 l -8.716797,-7.505859 -0.01172,0.0098 z" />
    </g>
    <path
       id="path19529"
       style="opacity:1;fill:none;stroke:#ffffff;stroke-width:5.80001;stop-color:#000000;stop-opacity:1"
       transform="rotate(45)"
       d="M 137.9469,0.72224998 A 40.099995,40.099995 0 0 1 97.846901,40.822245 40.099995,40.099995 0 0 1 57.746906,0.72224998 40.099995,40.099995 0 0 1 97.846901,-39.377745 40.099995,40.099995 0 0 1 137.9469,0.72224998 Z" />
  </g>
</svg>
